<?xml version="1.0" encoding="UTF-8"?>
<svg width="340px" height="340px" viewBox="0 0 340 340" xmlns="http://www.w3.org/2000/svg" xmlns:xlink="http://www.w3.org/1999/xlink" version="1.1">
 <!-- Generated by Pixelmator Pro 1.8 -->
 <path id="Rounded-Rectangle-copy-3" d="M100 90 C94.477 90 90 94.477 90 100 L90 170 C90 175.523 94.477 180 100 180 L170 180 C175.523 180 180 175.523 180 170 L180 100 C180 94.477 175.523 90 170 90 Z" fill="#00a2ff" fill-opacity="1" stroke="none"/>
 <defs>
  <linearGradient id="linear-gradient" gradientUnits="userSpaceOnUse" x1="31.406" y1="23.839" x2="154.831" y2="153.106">
   <stop offset="0" stop-color="#0ec9b0" stop-opacity="1"/>
   <stop offset="1" stop-color="#22a5fb" stop-opacity="1"/>
  </linearGradient>
 </defs>
 <path id="Ellipse-copy-3" d="M180 90 C180 40.294 139.706 0 90 0 40.294 0 0 40.294 0 90 0 139.706 40.294 180 90 180 139.706 180 180 139.706 180 90 Z" fill-opacity="1" fill="url(#linear-gradient)" stroke="none"/>
 <g id="New-Group-copy-5">
  <path id="Rounded-Rectangle-copy-1" d="M100 90 C94.477 90 90 94.477 90 100 L90 170 C90 175.523 94.477 180 100 180 L170 180 C175.523 180 180 175.523 180 170 L180 100 C180 94.477 175.523 90 170 90 Z" fill="#00a2ff" fill-opacity="1" stroke="none"/>
  <defs>
   <linearGradient id="linear-gradient-1" gradientUnits="userSpaceOnUse" x1="31.406" y1="23.839" x2="154.831" y2="153.106">
    <stop offset="0" stop-color="#0ec9b0" stop-opacity="1"/>
    <stop offset="1" stop-color="#22a5fb" stop-opacity="1"/>
   </linearGradient>
  </defs>
  <path id="Ellipse-copy" d="M180 90 C180 40.294 139.706 0 90 0 40.294 0 0 40.294 0 90 0 139.706 40.294 180 90 180 139.706 180 180 139.706 180 90 Z" fill-opacity="1" fill="url(#linear-gradient-1)" stroke="none"/>
 </g>
 <path id="Rounded-Rectangle-copy" d="M100 90 C94.477 90 90 94.477 90 100 L90 150 C90 155.523 94.477 160 100 160 L150 160 C155.523 160 160 155.523 160 150 L160 100 C160 94.477 155.523 90 150 90 Z" fill="#ffffff" fill-opacity="1" stroke="none"/>
 <path id="Ellipse-copy-2" d="M160 90 C160 51.34 128.66 20 90 20 51.34 20 20 51.34 20 90 20 128.66 51.34 160 90 160 128.66 160 160 128.66 160 90 Z" fill="#ffffff" fill-opacity="1" stroke="none"/>
 <g id="New-Group-copy-4">
  <path id="Rounded-Rectangle" d="M100 90 C94.477 90 90 94.477 90 100 L90 150 C90 155.523 94.477 160 100 160 L150 160 C155.523 160 160 155.523 160 150 L160 100 C160 94.477 155.523 90 150 90 Z" fill="#ffffff" fill-opacity="1" stroke="none"/>
  <path id="Ellipse" d="M160 90 C160 51.34 128.66 20 90 20 51.34 20 20 51.34 20 90 20 128.66 51.34 160 90 160 128.66 160 160 128.66 160 90 Z" fill="#ffffff" fill-opacity="1" stroke="none"/>
 </g>
 <path id="Rounded-Rectangle-copy-2" d="M240 250 C245.523 250 250 245.523 250 240 L250 170 C250 164.477 245.523 160 240 160 L170 160 C164.477 160 160 164.477 160 170 L160 240 C160 245.523 164.477 250 170 250 Z" fill="#00a2ff" fill-opacity="1" stroke="none"/>
 <defs>
  <linearGradient id="linear-gradient-2" gradientUnits="userSpaceOnUse" x1="229.339" y1="223.86" x2="313.459" y2="313.353">
   <stop offset="0" stop-color="#21a9ff" stop-opacity="1"/>
   <stop offset="1" stop-color="#fa3ebe" stop-opacity="1"/>
  </linearGradient>
 </defs>
 <path id="Ellipse-copy-1" d="M160 250 C160 299.706 200.294 340 250 340 299.706 340 340 299.706 340 250 340 200.294 299.706 160 250 160 200.294 160 160 200.294 160 250 Z" fill-opacity="1" fill="url(#linear-gradient-2)" stroke="none"/>
 <g id="New-Group-copy-2">
  <path id="Rounded-Rectangle-copy-1-1" d="M240 250 C245.523 250 250 245.523 250 240 L250 170 C250 164.477 245.523 160 240 160 L170 160 C164.477 160 160 164.477 160 170 L160 240 C160 245.523 164.477 250 170 250 Z" fill="#00a2ff" fill-opacity="1" stroke="none"/>
  <defs>
   <linearGradient id="linear-gradient-3" gradientUnits="userSpaceOnUse" x1="229.339" y1="223.86" x2="313.459" y2="313.353">
    <stop offset="0" stop-color="#21a9ff" stop-opacity="1"/>
    <stop offset="1" stop-color="#fa3ebe" stop-opacity="1"/>
   </linearGradient>
  </defs>
  <path id="Ellipse-copy-1" d="M160 250 C160 299.706 200.294 340 250 340 299.706 340 340 299.706 340 250 340 200.294 299.706 160 250 160 200.294 160 160 200.294 160 250 Z" fill-opacity="1" fill="url(#linear-gradient-3)" stroke="none"/>
 </g>
 <g id="New-Group-copy-1">
  <path id="Rounded-Rectangle-1" d="M240 250 C245.523 250 250 245.523 250 240 L250 190 C250 184.477 245.523 180 240 180 L190 180 C184.477 180 180 184.477 180 190 L180 240 C180 245.523 184.477 250 190 250 Z" fill="#ffffff" fill-opacity="1" stroke="none"/>
  <path id="Ellipse-1" d="M180 250 C180 288.66 211.34 320 250 320 288.66 320 320 288.66 320 250 320 211.34 288.66 180 250 180 211.34 180 180 211.34 180 250 Z" fill="#ffffff" fill-opacity="1" stroke="none"/>
 </g>
 <defs>
  <linearGradient id="linear-gradient-4" gradientUnits="userSpaceOnUse" x1="190" y1="170" x2="250" y2="170">
   <stop offset="0" stop-color="#00a2ff" stop-opacity="1"/>
   <stop offset="1" stop-color="#003758" stop-opacity="1"/>
  </linearGradient>
 </defs>
 <path id="Rectangle-copy" d="M190 180 L250 180 250 160 190 160 Z" fill-opacity="1" fill="url(#linear-gradient-4)" stroke="none"/>
 <path id="Ellipse-copy-2" d="M261 170 C261 164.477 256.523 160 251 160 245.477 160 241 164.477 241 170 241 175.523 245.477 180 251 180 256.523 180 261 175.523 261 170 Z" fill="#003758" fill-opacity="1" stroke="none"/>
 <g id="New-Group">
  <defs>
   <radialGradient id="radial-gradient" gradientUnits="userSpaceOnUse" cx="90.207" cy="89.793" r="70" fx="90.207" fy="89.793">
    <stop offset="0" stop-color="#fdbe2e" stop-opacity="1"/>
    <stop offset="1" stop-color="#fe594d" stop-opacity="1"/>
   </radialGradient>
  </defs>
  <path id="Polygon" d="M90.207 159.499 L160.207 89.793 90.207 20.086 20.207 89.793 Z" fill-opacity="1" fill="url(#radial-gradient)" stroke="none"/>
  <g id="New-Group-1">
   <path id="Path-copy-3" d="M90.516 20.086 C92.994 20.244 116.114 21.112 117.518 47.088 118.655 62.869 106.172 74.516 106.172 89.824 109.012 128.031 160.207 123.297 160.207 89.824 160.228 81.458 156.917 73.428 151.006 67.509 L112.863 29.35 C106.94 23.442 98.914 20.127 90.548 20.133" fill="#ffffff" fill-opacity="1" stroke="none"/>
   <path id="Path-copy-2" d="M20.826 89.808 C20.968 87.331 21.851 64.211 47.828 62.806 63.609 61.654 75.24 74.137 90.564 74.137 128.771 71.313 124.036 20.133 90.564 20.133 82.198 20.109 74.167 23.42 68.249 29.334 L30.073 67.478 C24.159 73.401 20.848 81.437 20.873 89.808" fill="#ffffff" fill-opacity="1" stroke="none"/>
   <path id="Path-copy-1" d="M90.516 159.499 C88.039 159.357 64.919 158.473 63.514 132.497 62.362 116.716 74.845 105.069 74.845 89.761 72.021 51.554 20.841 56.289 20.841 89.761 20.82 98.127 24.131 106.157 30.042 112.076 L68.201 150.251 C74.127 156.154 82.153 159.463 90.516 159.452" fill="#ffffff" fill-opacity="1" stroke="none"/>
   <path id="Path-copy" d="M160.081 89.808 C159.939 92.286 159.055 115.406 133.079 116.81 117.298 117.947 105.667 105.464 90.343 105.464 52.136 108.304 56.87 159.483 90.343 159.483 98.709 159.508 106.74 156.197 112.658 150.283 L150.833 112.123 C156.744 106.204 160.055 98.174 160.034 89.808" fill="#ffffff" fill-opacity="1" stroke="none"/>
  </g>
 </g>
 <g id="New-Group-copy">
  <defs>
   <radialGradient id="radial-gradient-1" gradientUnits="userSpaceOnUse" cx="251.207" cy="250.207" r="70" fx="251.207" fy="250.207">
    <stop offset="0" stop-color="#fdbe2e" stop-opacity="1"/>
    <stop offset="1" stop-color="#fe594d" stop-opacity="1"/>
   </radialGradient>
  </defs>
  <path id="Polygon-1" d="M251.207 180.501 L181.207 250.207 251.207 319.914 321.207 250.207 Z" fill-opacity="1" fill="url(#radial-gradient-1)" stroke="none"/>
  <g id="New-Group-2">
   <path id="Path-copy-3-1" d="M250.898 319.914 C248.421 319.756 225.301 318.888 223.896 292.912 222.76 277.131 235.243 265.484 235.243 250.176 232.403 211.969 181.208 216.703 181.208 250.176 181.186 258.542 184.497 266.572 190.409 272.491 L228.552 310.65 C234.475 316.558 242.501 319.873 250.867 319.867" fill="#ffffff" fill-opacity="1" stroke="none"/>
   <path id="Path-copy-2-1" d="M320.589 250.192 C320.447 252.669 319.564 275.789 293.587 277.194 277.806 278.346 266.175 265.863 250.851 265.863 212.644 268.688 217.379 319.867 250.851 319.867 259.217 319.891 267.248 316.58 273.166 310.666 L311.341 272.522 C317.256 266.599 320.567 258.563 320.542 250.192" fill="#ffffff" fill-opacity="1" stroke="none"/>
   <path id="Path-copy-1-1" d="M250.898 180.501 C253.376 180.643 276.496 181.527 277.9 207.503 279.053 223.284 266.569 234.931 266.569 250.239 269.394 288.446 320.574 283.711 320.574 250.239 320.595 241.873 317.284 233.843 311.372 227.924 L273.213 189.749 C267.288 183.846 259.262 180.537 250.898 180.548" fill="#ffffff" fill-opacity="1" stroke="none"/>
   <path id="Path-copy-1" d="M181.334 250.192 C181.476 247.714 182.36 224.594 208.336 223.19 224.117 222.053 235.748 234.536 251.072 234.536 289.279 231.696 284.544 180.517 251.072 180.517 242.706 180.492 234.675 183.803 228.757 189.717 L190.582 227.877 C184.671 233.796 181.36 241.826 181.381 250.192" fill="#ffffff" fill-opacity="1" stroke="none"/>
  </g>
 </g>
</svg>
